Coordinates
version=1
nRows=28
nColumns=23
inDegrees=yes

Units are S.I. units (second, meters, Newtons, ...)
If the header above contains a line with 'inDegrees', this indicates whether rotational values are in degrees (yes) or radians (no).

endheader
time	pelvis_tilt	pelvis_list	pelvis_rotation	pelvis_tx	pelvis_ty	pelvis_tz	hip_flexion_r	hip_adduction_r	hip_rotation_r	knee_angle_r	knee_angle_r_beta	ankle_angle_r	subtalar_angle_r	mtp_angle_r	hip_flexion_l	hip_adduction_l	hip_rotation_l	knee_angle_l	knee_angle_l_beta	ankle_angle_l	subtalar_angle_l	mtp_angle_l
     15.18000000	      5.98912663	     12.51214216	      3.96718243	      2.25012276	      0.97917634	      1.00690670	      5.83546744	    -19.97771547	     -3.58623554	     79.60909960	      1.38944090	      4.42826805	    -33.87209494	      0.00000000	     12.23809632	     20.59558269	      6.19222056	     46.41497935	      0.81009421	     19.63233042	    -20.31345077	      0.00000000
     15.18666667	      6.05105269	     12.32653065	      4.24802852	      2.24762323	      0.97926269	      1.00753135	      7.38545252	    -19.65656470	     -3.18093115	     79.92192992	      1.39490082	      5.19168439	    -34.00779330	      0.00000000	     10.87300553	     20.37263334	      6.85390872	     46.08757706	      0.80437996	     20.29130611	    -20.12211396	      0.00000000
     15.19333333	      6.00878459	     12.05473882	      4.28501689	      2.24551948	      0.97968151	      1.00819250	      9.09867218	    -19.29031467	     -2.64681801	     80.01735567	      1.39656632	      5.89190932	    -34.03152553	      0.00000000	      9.54552302	     20.00139972	      7.26898575	     45.52022024	      0.79447772	     20.97721055	    -19.95333123	      0.00000000
     15.20000000	      5.88670297	     11.81381563	      3.34352865	      2.24354800	      0.98022317	      1.01022440	     11.35282211	    -18.56781127	     -0.85096695	     80.06557573	      1.39740791	      6.52388623	    -33.99109123	      0.00000000	      8.45512919	     19.36477297	      6.37683689	     44.69282096	      0.78003688	     21.54543802	    -19.48304835	      0.00000000
     15.20666667	      5.72718993	     11.47314876	      3.10581710	      2.24192538	      0.98130770	      1.01117457	     13.15172168	    -17.93610348	     -0.05476787	     79.74414861	      1.39179795	      7.10143314	    -33.89532284	      0.00000000	      7.16580747	     18.81888249	      6.36759130	     43.81435973	      0.76470484	     22.02867798	    -19.04351534	      0.00000000
     15.21333333	      5.45177429	     11.15286281	      3.27061348	      2.24043789	      0.98272273	      1.01144282	     14.81232130	    -17.47098870	      0.22278950	     79.17171680	      1.38180713	      7.66523329	    -33.68196589	      0.00000000	      5.87578103	     18.40673538	      6.88022449	     42.87520635	      0.74831352	     22.28405277	    -18.63899564	      0.00000000
     15.22000000	      5.09964004	     10.76476918	      3.37879942	      2.23935483	      0.98434906	      1.01173759	     16.46805045	    -16.92988160	      0.47185511	     78.39524465	      1.36825514	      8.32379055	    -33.24854134	      0.00000000	      4.63892476	     17.86490735	      7.23007925	     41.84035764	      0.73025200	     22.46053098	    -18.20598131	      0.00000000
     15.22666667	      5.57439459	     10.16354262	      2.44384412	      2.23850602	      0.98741707	      1.01331321	     17.38876106	    -15.72634812	      1.54853865	     77.26875234	      1.34859414	      8.61652749	    -33.13334246	      0.00000000	      2.52644634	     16.92356724	      6.64375188	     40.41495329	      0.70537400	     22.45608502	    -17.63265196	      0.00000000
     15.23333333	      5.47941868	      9.49508025	      2.38579311	      2.23795054	      0.99022831	      1.01362513	     18.49728835	    -14.79425515	      1.67200556	     75.92117201	      1.32507442	      9.08026283	    -32.72715705	      0.00000000	      0.94646458	     16.04860889	      6.86835132	     39.17037119	      0.68365195	     22.27624888	    -17.08899225	      0.00000000
     15.24000000	      5.71666036	      8.76980131	      2.30325280	      2.23769202	      0.99378601	      1.01400314	     19.07046902	    -13.83567879	      1.58508106	     74.28706651	      1.29655390	      9.45674336	    -32.39515945	      0.00000000	     -1.04883530	     15.03251339	      6.99010633	     37.78250380	      0.65942909	     21.95224891	    -16.31574123	      0.00000000
     15.24666667	      5.00050834	      8.33538629	      2.48226960	      2.23759086	      0.99635953	      1.01397763	     20.66329968	    -13.30875012	      1.46322080	     72.65913014	      1.26814105	      9.79997343	    -31.91190464	      0.00000000	     -1.95990818	     14.42687927	      7.32582043	     36.50983760	      0.63721688	     21.26816135	    -15.71988058	      0.00000000
     15.25333333	      5.61087603	      7.07630505	      2.36092873	      2.23773348	      1.00110506	      1.01419201	     20.48699239	    -11.79421791	      0.98570376	     70.41365676	      1.22895015	     10.04528306	    -31.47810850	      0.00000000	     -4.32518179	     12.78090528	      7.25826788	     35.06059010	      0.61192273	     20.52750528	    -14.98225602	      0.00000000
     15.26000000	      5.37405476	      6.14622026	      2.41591362	      2.23800965	      1.00490291	      1.01420790	     21.23638978	    -10.72319597	      0.53842972	     68.18128964	      1.18998799	     10.22907831	    -30.98427392	      0.00000000	     -5.69938270	     11.55298077	      7.26043094	     33.73369453	      0.58876404	     19.43804355	    -14.33012858	      0.00000000
     15.26666667	      5.03112281	      5.24220622	      2.43193465	      2.23843161	      1.00869538	      1.01420737	     22.02515858	     -9.72987359	      0.00588091	     65.78620124	      1.14818581	     10.41699344	    -30.31079973	      0.00000000	     -6.91044056	     10.33755764	      7.06124043	     32.42161693	      0.56586396	     18.13099470	    -13.63478208	      0.00000000
     15.27333333	      4.90588513	      4.24107404	      2.43374144	      2.23905178	      1.01291212	      1.01423064	     22.43317555	     -8.64865650	     -0.67680902	     63.15667204	      1.10229187	     10.52123719	    -29.58990334	      0.00000000	     -8.33572262	      8.97393173	      6.70010190	     31.09146560	      0.54264844	     16.61809944	    -12.70487333	      0.00000000
     15.28000000	      4.96313587	      3.23999630	      2.41550701	      2.23964326	      1.01742937	      1.01418212	     22.54095422	     -7.62110663	     -1.52393065	     60.33472037	      1.05303952	     10.61069038	    -28.68624262	      0.00000000	     -9.91158351	      7.58107139	      6.11479995	     29.76289065	      0.51946044	     14.90659878	    -11.61219833	      0.00000000
     15.28666667	      4.05121222	      2.66343520	      2.30553862	      2.24044901	      1.02075515	      1.01440640	     23.77904131	     -7.04162227	     -2.15241474	     57.62621625	      1.00576721	     10.61261823	    -27.72209531	      0.00000000	    -10.37846020	      6.77802089	      5.62116469	     28.52764076	      0.49790126	     12.82692571	    -10.98338633	      0.00000000
     15.29333333	      4.41503495	      1.33583663	      2.20564320	      2.24122068	      1.02577481	      1.01439465	     23.28342454	     -5.63216787	     -3.23536675	     54.34266241	      0.94845838	     10.68575154	    -26.28276956	      0.00000000	    -12.13318628	      5.00243966	      4.50153939	     27.37189298	      0.47772965	     10.85130113	     -9.55866295	      0.00000000
     15.30000000	      3.75168481	      0.52926287	      1.94946881	      2.24204714	      1.02945136	      1.01476193	     24.02213783	     -4.73635709	     -4.01551723	     51.25463739	      0.89456218	     10.69592587	    -24.64966628	      0.00000000	    -12.71091714	      3.96995885	      3.59831211	     26.33187795	      0.45957797	      8.47578144	     -8.93352460	      0.00000000
     15.30666667	      3.38943049	     -0.33841810	      1.69123088	      2.24288888	      1.03344240	      1.01522893	     24.29572549	     -3.74039986	     -4.90844526	     48.00224377	      0.83779720	     10.68699049	    -22.76432791	      0.00000000	    -13.55181601	      2.82635078	      2.46106105	     25.35920041	      0.44260154	      6.06137251	     -7.98130259	      0.00000000
     15.31333333	      3.18295173	     -1.18206709	      1.45255559	      2.24375150	      1.03754798	      1.01581529	     24.30548302	     -2.74376181	     -5.89420961	     44.66651330	      0.77957772	     10.60423946	    -20.56347855	      0.00000000	    -14.51933461	      1.71040723	      1.31977279	     24.44247029	      0.42660158	      3.57724977	     -6.88534081	      0.00000000
     15.32000000	      2.82922082	     -1.87810619	      1.15450071	      2.24444514	      1.04131306	      1.01679598	     24.45516921	     -1.76504600	     -6.64280351	     41.36351533	      0.72192953	     10.50870027	    -18.20482519	      0.00000000	    -15.21000912	      0.77698602	      0.18531189	     23.70340581	      0.41370248	      1.01071559	     -6.03774755	      0.00000000
     15.32666667	      2.53254192	     -2.59012210	      0.83769145	      2.24524490	      1.04500297	      1.01789906	     24.44696153	     -0.68610294	     -7.30196878	     38.00585841	      0.66332736	     10.35104315	    -15.56541060	      0.00000000	    -15.90209772	     -0.14090693	     -0.90746404	     23.08340193	      0.40288137	     -1.52981579	     -5.25013945	      0.00000000
     15.33333333	      2.00899128	     -3.12118341	      0.43654258	      2.24596710	      1.04815739	      1.01939297	     24.69521154	      0.34792332	     -7.60469519	     34.79463237	      0.60728090	     10.11081617	    -12.93913321	      0.00000000	    -16.22567947	     -0.84299192	     -1.95536932	     22.68072165	      0.39585327	     -4.05979479	     -4.64298385	      0.00000000
     15.34000000	      1.64932073	     -3.62295003	      0.08966724	      2.24668074	      1.05124660	      1.02098079	     24.70816254	      1.40319117	     -7.77725656	     31.64921525	      0.55238301	      9.80964159	    -10.25966743	      0.00000000	    -16.62967451	     -1.53336659	     -2.92759826	     22.44255120	      0.39169641	     -6.53198618	     -4.07062249	      0.00000000
     15.34666667	      0.88720602	     -3.80754087	     -0.31315183	      2.24728775	      1.05361828	      1.02293975	     25.18799250	      2.27188162	     -7.40624875	     28.73419346	      0.50150628	      9.33219876	     -8.08342924	      0.00000000	    -16.45647994	     -1.86410994	     -3.60113066	     22.42100794	      0.39132041	     -9.03326265	     -3.86016407	      0.00000000
     15.35333333	      0.31773911	     -4.07764692	     -0.70020863	      2.24811204	      1.05579363	      1.02476011	     25.41654997	      3.21270871	     -7.00867288	     25.99124599	      0.45363282	      8.88722749	     -5.75026386	      0.00000000	    -16.40716484	     -2.29999066	     -4.33941636	     22.60004789	      0.39444525	    -11.29735824	     -3.61621108	      0.00000000
     15.36000000	      0.60807217	     -4.60637578	     -0.84197301	      2.24877941	      1.05853581	      1.02626933	     24.65043265	      4.25199953	     -7.08666789	     23.37389585	      0.40795144	      8.55755200	     -2.93605374	      0.00000000	    -17.16829392	     -3.10591918	     -5.13674614	     22.98521224	      0.40116763	    -13.13671750	     -2.88171801	      0.00000000
